<svg id="Layer_1" data-name="Layer 1" xmlns="http://www.w3.org/2000/svg" viewBox="0 0 1663.78 563.69"><defs><style>.cls-1{fill:#008fff;}.cls-2{fill:#fc951f;}</style></defs><path class="cls-1" d="M493.71,1189.66h-53.6v-115.9q0-24.43-8.6-36.07t-23.8-11.63q-15.6,0-29.8,12t-20.2,31.34v120.24h-53.6v-115.9q0-24.84-8.6-36.27t-23.8-11.43q-15.6,0-29.8,11.72t-20.2,30.85v121h-53.6V982.06h48.4v38.72a82.7,82.7,0,0,1,32-31q20-10.87,46-10.88t40.6,12.66a56,56,0,0,1,18.6,31.24q12.8-21.36,32.6-32.63t44.6-11.27q19.59,0,31.8,6.92a50.35,50.35,0,0,1,19,18.59,79.51,79.51,0,0,1,9.4,26.3,169.64,169.64,0,0,1,2.6,29.66Z" transform="translate(-168.11 -718.16)"/><path class="cls-1" d="M639.71,1193.66q-24,0-42.8-10.8a78.76,78.76,0,0,1-29.6-29.6v36.4h-46.8v-292h53.6v121.6a83.31,83.31,0,0,1,29.4-29.6q18.19-10.8,42.6-10.8a81.29,81.29,0,0,1,37.2,8.5,88.76,88.76,0,0,1,29,23.54,110.91,110.91,0,0,1,18.8,34.42,128.05,128.05,0,0,1,6.6,41.53,115.55,115.55,0,0,1-7.4,41.54,110,110,0,0,1-20.6,34.22,91.44,91.44,0,0,1-70,31.05Zm-14.8-45.6a54.92,54.92,0,0,0,23.4-4.91,59.55,59.55,0,0,0,18.4-13.14,57,57,0,0,0,12-19.42,65.89,65.89,0,0,0,4.2-23.35,70.15,70.15,0,0,0-7-31.19,59.65,59.65,0,0,0-19.2-23q-12.21-8.62-28.6-8.63a49,49,0,0,0-22.2,5.3,63.69,63.69,0,0,0-18.8,14.32,71.37,71.37,0,0,0-13,20.4v49a38.87,38.87,0,0,0,7.8,14.13,55,55,0,0,0,12.6,10.79,67.83,67.83,0,0,0,15,7.06A49.34,49.34,0,0,0,624.91,1148.06Z" transform="translate(-168.11 -718.16)"/><path class="cls-1" d="M739.7,1128.45q0-20.16,11.4-35.37t31.8-23.52q20.4-8.3,46.8-8.3a184.53,184.53,0,0,1,26.8,2,92.25,92.25,0,0,1,23.6,6.4v-11.15q0-19.63-11.8-30.24t-35-10.61a90.57,90.57,0,0,0-32.8,6,166.12,166.12,0,0,0-32.8,17.6l-17.2-35.2a171.23,171.23,0,0,1,42.6-20.4,153,153,0,0,1,45.8-6.8q44.8,0,69.8,22.09t25,63.08v65.86q0,8.28,3,11.83t9.8,4.34v43.6q-7.2,1.2-13,2a74.25,74.25,0,0,1-9.8.8q-16,0-24.2-7.2a30.5,30.5,0,0,1-10.2-17.6l-1.2-10.8a91.59,91.59,0,0,1-34,27.2,96.77,96.77,0,0,1-41.6,9.6q-20.81,0-37.4-8.5a65.22,65.22,0,0,1-26-23.31A61,61,0,0,1,739.7,1128.45Zm130.4,10.41a55.39,55.39,0,0,0,7.2-9.36,17,17,0,0,0,2.8-8.58v-20.67a110.18,110.18,0,0,0-20.8-6,113.7,113.7,0,0,0-21.2-2.14q-20.8,0-34.2,8.77T790.5,1124a27.49,27.49,0,0,0,4.4,14.82,31.6,31.6,0,0,0,12.8,11.31q8.4,4.29,20,4.29a64.93,64.93,0,0,0,23.6-4.48Q862.9,1145.49,870.1,1138.86Z" transform="translate(-168.11 -718.16)"/><path class="cls-1" d="M960.1,1230.46q7.2,1.59,13.4,2.8a57.14,57.14,0,0,0,10.6,1.2q7.6,0,12.6-3.78t9.8-13.43q4.8-9.66,10-27L933.7,982.06h55.6l56.4,153.76,49.6-153.76h51.2l-88,249.51a76.56,76.56,0,0,1-14.6,25.23,69.65,69.65,0,0,1-24.4,17.89,78.56,78.56,0,0,1-32.6,6.57,83.63,83.63,0,0,1-12.8-1,96.65,96.65,0,0,1-14-3.4Z" transform="translate(-168.11 -718.16)"/><path class="cls-2" d="M1251.7,1229.84a25.95,25.95,0,1,0,18.4,7.6A25.08,25.08,0,0,0,1251.7,1229.84Z" transform="translate(-168.11 -718.16)"/><path class="cls-2" d="M1319.5,1229.84a24.61,24.61,0,0,0-18,7.6,26.07,26.07,0,0,0,0,36.8,24.57,24.57,0,0,0,18,7.6,26,26,0,1,0,0-52Z" transform="translate(-168.11 -718.16)"/><path class="cls-2" d="M1410.54,1137.72c-.82,3-1.7,5.92-2.68,8.63Z" transform="translate(-168.11 -718.16)"/><path class="cls-2" d="M1503.1,1140.24a24.43,24.43,0,0,0-18.2,7.6,26.58,26.58,0,0,0,0,36.8,24.39,24.39,0,0,0,18.2,7.6,26,26,0,1,0,0-52Z" transform="translate(-168.11 -718.16)"/><path class="cls-2" d="M1814.29,947.44q-22-25.2-63.2-25.2-38,.4-63.2,22.4-29.21,25.2-29.6,68.8,0,33.21,16.8,56.8h-6.4q-16.8,0-29,13a43.72,43.72,0,0,0-12.2,31v146h48.8V1121q0-10,10-10h102.4a40.56,40.56,0,0,0,28-10.8q15.19-12.79,15.2-33.2v-70.8Q1831.89,966.24,1814.29,947.44Zm-31.2,112.8q0,10-10,10h-19.2q-22,0-34.6-14.6t-12.6-39.4q0-24,12-38.6t32-14.6q12.8,0,21.6,8,10.8,8.81,10.8,25.2Z" transform="translate(-168.11 -718.16)"/><path class="cls-2" d="M1557.9,1060.24a9.27,9.27,0,0,1-2.8,6.8,10.37,10.37,0,0,1-7.6,3.2h-116l74.4-239.76c4.28-13.72,21-51.43,46.8-61.06,13.26-5,28.38-2,46.24,9l25.72-41.7c-38.92-24-70.07-20.38-89.35-13.11-23.21,8.75-43.19,27.26-59.36,55A192.4,192.4,0,0,0,1459.07,816l-78.78,254.24L1367.6,1111v.15l0,.06-6.35,20.65c-4.75,11.56-10.62,17.95-20.53,23.54q-18,10.39-58.4,10.4-46.4,0-65.4-15.4t-19-53.4v-55.6l-48.8-.17v60.17q0,52,33.2,79.2,30,26,80.4,26h39.6q44.4,0,73.2-20.4c16.06-11,26-21.93,32.36-39.89l2.68-8.63,8.28-26.68H1563.1q19.59,0,32.8-15.2,10.39-13.2,10.4-28.8V927h-48.4Z" transform="translate(-168.11 -718.16)"/></svg>